<svg xmlns="http://www.w3.org/2000/svg" viewBox="0 0 139.53 139.52"><defs><style>.cls-1{fill:none;stroke:#000;stroke-miterlimit:10;stroke-width:8px;}</style></defs><title>资源 10</title><g id="图层_2" data-name="图层 2"><g id="图层_3" data-name="图层 3"><path class="cls-1" d="M67.25,5.79C62.68,19.74,54.31,45.13,52.37,51a2.56,2.56,0,0,1-1.65,1.65C44.89,54.59,19.81,62.85,5.79,67.44a2.6,2.6,0,0,0,0,5c13.93,4.36,39.06,12.55,44.9,14.46a2.56,2.56,0,0,1,1.66,1.64c1.95,5.86,10.38,31.14,14.86,45.22a2.59,2.59,0,0,0,5,0c4.41-14.09,12.47-39.27,14.37-45.18a2.54,2.54,0,0,1,1.67-1.67c6-1.91,31.46-10.08,45.48-14.46a2.6,2.6,0,0,0,0-5c-14.1-4.63-39.55-12.85-45.51-14.78A2.59,2.59,0,0,1,86.56,51C84.69,45,76.7,19.75,72.19,5.8A2.6,2.6,0,0,0,67.25,5.79Z"/></g></g></svg>